<svg width="1013" height="220" viewBox="0 0 1013 220" fill="none" xmlns="http://www.w3.org/2000/svg">
<path d="M0.667969 155.795H43.2949C45.3457 173.227 63.5098 184.652 86.9473 184.652C110.531 184.652 126.645 173.373 126.645 157.846C126.645 144.076 116.537 136.459 91.0488 130.746L63.5098 124.74C24.5449 116.391 5.35547 96.6152 5.35547 65.707C5.35547 26.7422 39.0469 0.960938 86.2148 0.960938C135.434 0.960938 166.342 26.3027 167.074 64.5352H125.619C124.154 46.6641 108.48 35.8242 86.3613 35.8242C64.5352 35.8242 49.8867 46.2246 49.8867 61.8984C49.8867 74.9355 60.1406 82.2598 84.457 87.8262L110.092 93.2461C152.426 102.328 170.883 120.492 170.883 152.719C170.883 193.734 137.631 219.662 85.1895 219.662C34.3594 219.662 1.98633 195.492 0.667969 155.795ZM195.492 216V4.62305H237.533V86.9473H238.412C246.762 67.1719 263.9 56.0391 287.777 56.0391C322.641 56.0391 342.562 78.5977 342.562 114.926V216H299.789V124.008C299.789 103.793 289.828 91.4883 270.346 91.4883C250.131 91.4883 238.266 105.697 238.266 126.352V216H195.492ZM589.389 58.9688L547.787 216H502.23L473.812 104.965H472.934L444.662 216H399.691L357.943 58.9688H401.01L424.74 175.424H425.619L453.451 58.9688H494.467L522.445 175.424H523.324L547.201 58.9688H589.389ZM674.203 87.2402C655.453 87.2402 641.977 101.449 640.512 121.078H707.162C706.283 101.01 693.246 87.2402 674.203 87.2402ZM707.748 167.953H747.006C742.318 198.715 714.193 219.369 675.375 219.369C627.035 219.369 598.031 188.461 598.031 138.217C598.031 88.1191 627.328 55.5996 673.764 55.5996C719.467 55.5996 748.324 86.5078 748.324 134.262V147.299H640.072V149.936C640.072 172.348 654.281 187.729 676.107 187.729C691.781 187.729 703.793 179.965 707.748 167.953ZM781.869 22.7871H824.643V58.9688H853.646V91.1953H824.643V166.342C824.643 178.354 830.502 184.066 843.1 184.066C846.908 184.066 850.863 183.773 853.5 183.334V214.828C849.105 215.854 841.781 216.586 833.139 216.586C796.225 216.586 781.869 204.281 781.869 173.666V91.1953H759.75V58.9688H781.869V22.7871ZM936.264 187.582C954.867 187.582 970.248 175.424 970.248 158.432V147.006L937.143 149.057C921.176 150.229 912.094 157.406 912.094 168.539C912.094 180.258 921.762 187.582 936.264 187.582ZM922.201 218.49C892.318 218.49 869.613 199.154 869.613 170.883C869.613 142.318 891.586 125.766 930.697 123.422L970.248 121.078V110.678C970.248 96.0293 959.994 87.5332 943.881 87.5332C927.914 87.5332 917.807 95.4434 915.756 107.016H876.645C878.256 76.5469 904.184 55.5996 945.785 55.5996C986.068 55.5996 1012.29 76.4004 1012.29 108.041V216H970.98V191.977H970.102C961.312 208.676 941.83 218.49 922.201 218.49Z" fill="white"/>
</svg>
